<?xml version="1.0" standalone="no"?><!DOCTYPE svg PUBLIC "-//W3C//DTD SVG 1.1//EN" "http://www.w3.org/Graphics/SVG/1.1/DTD/svg11.dtd"><svg width="200" height="200" viewBox="0 0 200 200" version="1.1" xmlns="http://www.w3.org/2000/svg" xmlns:xlink="http://www.w3.org/1999/xlink"><defs><style type="text/css"><![CDATA[
@font-face { font-family: ifont; src: url("//at.alicdn.com/t/font_1442373896_4754455.eot?#iefix") format("embedded-opentype"), url("//at.alicdn.com/t/font_1442373896_4754455.woff") format("woff"), url("//at.alicdn.com/t/font_1442373896_4754455.ttf") format("truetype"), url("//at.alicdn.com/t/font_1442373896_4754455.svg#ifont") format("svg"); }

]]></style></defs><g class="transform-group"><g transform="scale(0.1953125, 0.1953125)"><path d="M984.739323 631.493511c-36.871769-137.627521-115.828029-243.872287-239.257176-316.137147-14.186094-8.305153-29.184693-15.219633-43.823088-22.793122 0.095167-0.209778 0.161682-0.678452 0.432859-0.927115 2.456958-2.376117 4.967128-4.696975 7.444553-7.054673 25.400506-24.282033 48.208978-52.369741 60.127426-85.506443 5.779633-16.061814 7.208169-23.053042 11.222599-37.96159 7.465019-47.092551-1.11745-75.721589-29.096688-99.518574C713.976596 29.42824 671.07346 25.624611 625.755322 44.506656c-3.146667 1.306762-5.231141 2.260483-8.365528-0.704035-58.334593-55.17974-151.983483-55.69651-210.716142-1.213641-2.741437 2.544963-4.725628 3.187599-8.28571 1.551332-23.828708-10.970866-48.742121-13.319353-74.312496-8.036024-48.458665 10.019191-88.539522 51.254338-81.425498 107.571994 6.17156 48.858778 25.101701 91.139743 57.736982 127.585817 6.700609 7.483438 13.81975 14.592346 21.028942 22.158672-1.794879 0.87288-3.574409 1.778506-5.38873 2.612501C149.312142 372.296191 36.691155 537.999141 23.506878 726.4727c-3.647063 52.121078-0.596588 103.730503 12.487406 154.836461 20.6012 80.506569 91.394546 140.816143 176.395476 140.619668 200.307072-0.459464 400.621307 0.048095 600.928379-0.25992 64.35061-0.099261 113.885793-28.991288 149.83147-81.59946 18.267039-26.740014 26.807552-57.108672 31.782867-88.921215C1006.505046 777.151939 1004.102323 703.800327 984.739323 631.493511L984.739323 631.493511zM652.169925 758.989277c-5.352915 4.108574-12.154831 6.16542-20.392446 6.16542l-86.515423 0 0 27.40414c0 8.216125-3.092431 16.20917-9.273201 23.971971-6.178723 7.756661-14.2127 11.181667-24.100908 10.273994-9.888208 0-18.131963-2.517333-24.714891-7.538697-6.594185-5.022387-10.30367-13.922081-11.128455-26.707268l0-27.396977-84.045161 0c-8.236592 0-15.038508-2.514263-20.393469-7.53972-5.351891-5.021364-7.619538-11.180644-6.79987-18.49012 0-8.216125 2.677992-14.842033 8.03193-19.863397 5.361101-5.022387 11.744485-7.532557 19.161409-7.532557l84.045161 0 0-47.945989-84.045161 0c-8.243755 0-14.836917-2.740414-19.776416-8.222265-4.941546-5.478781-7.416923-11.872399-7.416923-19.173688 0-7.312546 2.677992-14.162558 8.03193-20.547988 5.361101-6.398734 11.744485-9.590426 19.161409-9.590426l84.045161 0 1.233084-28.764114c-14.829753-16.438391-28.427446-31.965016-40.783869-46.580898-10.715039-12.785188-20.602224-24.65247-29.665647-35.610032l-18.538215-19.180851c-4.121877-5.475711-7.829316-13.015432-11.126408-22.598694-3.288906-9.590426-1.64343-19.411095 4.947685-29.454846 7.417947-9.129938 16.48137-11.641131 27.186176-7.532557 10.715039 4.108574 19.371186 9.360182 25.956162 15.749706 3.296069 4.568039 9.06854 11.418051 17.306154 20.547988l59.329247 65.751516c14.002922-14.611789 26.773783-27.850301 38.313607-39.721677 9.888208-10.050913 19.775392-19.86442 29.6636-29.454846 9.888208-9.590426 16.893762-16.20917 21.014616-19.86442 7.417947-7.302313 15.654538-10.957563 24.716938-10.957563s16.479323 4.108574 22.246677 12.331863c10.714016 13.697977 6.591115 29.677926-12.358469 47.944965-4.947685 4.561899-12.358469 12.554944-22.246677 23.971971-9.888208 11.410887-19.775392 22.598694-29.6636 33.553187-11.533684 13.70207-24.304546 27.860535-38.313607 42.473347l0 26.022677 80.3367 0c11.538801 0 19.97903 2.971681 25.340131 8.903787 5.352915 5.939269 8.033977 12.554944 8.033977 19.86749 0 8.212032-2.470261 15.292288-7.417947 21.231557-4.940522 5.935176-13.184277 8.446369-24.716938 7.532557l-80.343863 1.367137-1.231037 46.577828 79.098499 0c23.072485 0 34.611286 9.590426 34.611286 28.764114C659.791509 748.262982 657.531026 754.881726 652.169925 758.989277L652.169925 758.989277zM652.169925 758.989277" fill="#04be02"></path></g></g></svg>