<svg xmlns="http://www.w3.org/2000/svg" width="94.5" height="95.125" viewBox="0 0 94.5 95.125">
  <defs>
    <style>
      .cls-1 {
        fill: #04be02;
        fill-rule: evenodd;
      }
    </style>
  </defs>
  <path id="形状_4" data-name="形状 4" class="cls-1" d="M68.75,167.821A47.552,47.552,0,1,1,21.5,215.372,47.4,47.4,0,0,1,68.75,167.821Zm8.022,11.564h0ZM58.937,213.533A12.492,12.492,0,0,0,68.93,218.5H69.07a12.492,12.492,0,0,0,9.993-4.966,34.22,34.22,0,0,0,3.25-6.613c1.989-2.374,2.742-4.63,2.241-6.711a5.025,5.025,0,0,0-1.6-2.638,17.3,17.3,0,0,0-.621-7.881,12.31,12.31,0,0,0-6.964-7.472A16.231,16.231,0,0,0,69.33,181H69.189c-0.074,0-.137,0-0.189,0s-0.115,0-.19,0H68.67a16.231,16.231,0,0,0-6.042,1.219,12.31,12.31,0,0,0-6.964,7.472,17.31,17.31,0,0,0-.621,7.881,5.027,5.027,0,0,0-1.6,2.638c-0.5,2.081.253,4.336,2.241,6.711a34.215,34.215,0,0,0,3.25,6.612h0m13.874,8.742-1.739-1.9H66.928l-1.739,1.9a7.134,7.134,0,0,0,2.609,2.944l-2.609,6.595s1.908,2.72,3.812,3.421c1.9-.7,3.811-3.421,3.811-3.421L70.2,225.219a7.138,7.138,0,0,0,2.609-2.944h0m23.323,5.015c-3.161-4.047-17.235-6.915-17.235-6.915,1.864,10.7-9.9,17.21-9.9,17.21s-11.764-6.508-9.9-17.21c0,0-14.074,2.868-17.235,6.915a13.131,13.131,0,0,0-2.706,10.283c0.248,1.767.683,2.838,3.54,3.427H95.3c2.858-.589,3.292-1.66,3.54-3.427a13.131,13.131,0,0,0-2.707-10.283h0m0,0h0Z" transform="translate(-21.5 -167.813)"/>
</svg>
