<svg xmlns="http://www.w3.org/2000/svg" xmlns:xlink="http://www.w3.org/1999/xlink" preserveAspectRatio="xMidYMid" width="35" height="35" viewBox="0 0 23.344 35.469">
  <defs>
    <style>
      .cls-1 {
        fill: #04be02;
        fill-rule: evenodd;
      }
    </style>
  </defs>
  <path d="M23.354,12.117 C23.347,13.095 23.248,14.325 22.786,15.480 C22.402,16.440 21.942,17.370 21.506,18.308 C19.133,23.427 16.756,28.545 14.382,33.663 C13.729,35.071 12.453,35.729 10.959,35.375 C10.138,35.180 9.506,34.691 9.134,33.903 C8.578,32.725 8.030,31.542 7.480,30.361 C5.260,25.593 3.041,20.825 0.818,16.058 C0.384,15.128 0.169,14.142 0.079,13.126 C-0.053,11.636 0.030,10.160 0.407,8.707 C0.908,6.773 1.881,5.110 3.242,3.674 C4.759,2.074 6.537,0.888 8.682,0.387 C12.861,-0.589 16.603,0.256 19.762,3.301 C21.355,4.836 22.468,6.666 23.005,8.840 C23.249,9.831 23.357,10.838 23.354,12.117 L23.354,12.117 ZM11.679,17.740 C14.896,17.761 17.489,15.133 17.522,11.837 C17.555,8.612 14.896,5.901 11.705,5.905 C8.480,5.910 5.869,8.519 5.852,11.798 C5.836,15.085 8.419,17.718 11.679,17.740 L11.679,17.740 Z" class="cls-1"/>
</svg>
