<svg xmlns="http://www.w3.org/2000/svg" width="102.563" height="102.313" viewBox="0 0 102.563 102.313">
  <defs>
    <style>
      .cls-1 {
        fill: #04be02;
        fill-rule: evenodd;
      }
    </style>
  </defs>
  <path id="形状_5_拷贝_2" data-name="形状 5 拷贝 2" class="cls-1" d="M450.524,685.946a51.716,51.716,0,0,1-14.086-1.968,51.163,51.163,0,1,1,52.673-82.81,2.581,2.581,0,0,1-1.952,4.278,2.617,2.617,0,0,1-1.966-.89,45.931,45.931,0,1,0,9.261,16.565,2.583,2.583,0,0,1,1.7-3.233,2.643,2.643,0,0,1,.781-0.119,2.565,2.565,0,0,1,2.459,1.816A51.245,51.245,0,0,1,450.524,685.946Zm-20.217-21.685a2.59,2.59,0,0,1-2.589-2.585c0-7.961,3.686-19.717,10.518-25.825l1.219-1.09-1.219-1.09c-6.832-6.109-10.518-17.865-10.518-25.825a2.589,2.589,0,0,1,2.589-2.585h40.27a2.59,2.59,0,0,1,2.59,2.585c0,8.372-3.34,19.937-9.723,25.841l-1.161,1.074,1.161,1.073c6.383,5.9,9.723,17.469,9.723,25.842a2.591,2.591,0,0,1-2.59,2.585h-40.27Zm2.929-52.146c1.34,8.765,6.506,18.69,12.833,20.124a2.584,2.584,0,0,1,0,5.043c-6.325,1.435-11.491,11.359-12.831,20.125l-0.257,1.683h34.94l-0.213-1.65a37.953,37.953,0,0,0-3.977-12.717c-2.271-4.2-5.034-6.77-7.99-7.441a2.584,2.584,0,0,1,0-5.043c2.954-.671,5.717-3.244,7.988-7.441a37.953,37.953,0,0,0,3.977-12.717l0.213-1.65h-34.94ZM446.378,654.8a2.585,2.585,0,1,1,0-5.17h8.477a2.585,2.585,0,1,1,0,5.17h-8.477Z" transform="translate(-399.156 -583.625)"/>
</svg>
