<svg xmlns="http://www.w3.org/2000/svg" xmlns:xlink="http://www.w3.org/1999/xlink" preserveAspectRatio="xMidYMid" width="127" height="127" viewBox="0 0 127 127">
  <defs>
    <style>
      .cls-1 {
        fill: #04be02;
        fill-rule: evenodd;
      }
    </style>
  </defs>
  <path d="M63.500,0.000 C28.438,0.000 0.000,28.432 0.000,63.500 C0.000,98.574 28.438,127.000 63.500,127.000 C98.574,127.000 127.000,98.574 127.000,63.500 C127.000,28.432 98.574,0.000 63.500,0.000 L63.500,0.000 ZM88.218,92.695 C83.740,97.173 67.047,92.931 50.564,76.448 C34.069,59.953 29.840,43.272 34.305,38.794 C38.187,34.912 42.925,28.135 50.006,36.959 C57.100,45.789 53.616,48.257 49.622,52.257 C46.819,55.054 52.660,62.135 58.762,68.238 C64.877,74.352 71.946,80.181 74.749,77.391 C78.755,73.385 81.223,69.900 90.053,76.994 C98.871,84.088 92.100,88.813 88.218,92.695 L88.218,92.695 Z" class="cls-1"/>
</svg>
