<svg xmlns="http://www.w3.org/2000/svg" width="102.156" height="102.031" viewBox="0 0 102.156 102.031">
  <defs>
    <style>
      .cls-1 {
        fill: #04be02;
        fill-rule: evenodd;
      }
    </style>
  </defs>
  <path id="形状_6_拷贝_2" data-name="形状 6 拷贝 2" class="cls-1" d="M449.331,822.393a50.789,50.789,0,0,1-19.789-3.971,2.287,2.287,0,0,1,1.781-4.212,46.442,46.442,0,1,0-21.394-18.165,2.286,2.286,0,0,1-3.875,2.428A51.117,51.117,0,1,1,449.331,822.393Zm-18.8-15.381a13.294,13.294,0,0,1-9.375-3.834,13.545,13.545,0,0,1-4.047-9.327,13.461,13.461,0,0,1,13.013-13.908h-0.032c0.041,0,.178-0.007.311-0.014l0.177-.008a13.207,13.207,0,0,1,7.789,2.564l0.173,0.126,0.2,0.071a8.273,8.273,0,0,0,2.751.481c3.348,0,6.619-2.106,9.722-6.26a17.939,17.939,0,0,0,3.477-6.941,7.091,7.091,0,0,0-1.28-5.985l-0.129-.166-0.171-.123a13.609,13.609,0,0,1-1.944-1.727l-0.023-.025-0.025-.024a2.819,2.819,0,0,1-.228-0.254l-0.021-.026-0.022-.026a13.35,13.35,0,0,1,9.615-22.26l0.433-.008A13.464,13.464,0,0,1,473.944,749.8l0.015,0.067,0.022,0.066a28.418,28.418,0,0,1,.689,12.491c-1.129,8.03-4.845,16.3-11.044,24.578-13.369,17.882-26.179,19.813-31.065,19.813H431.1v0.193c-0.074,0-.137.006-0.182,0.006h-0.386Zm0.456-4.895a3.272,3.272,0,0,1,.755.075l0.153,0.037,0.158,0c0.091,0,.2,0,0.316,0a23.958,23.958,0,0,0,10.277-2.656c6.1-2.959,11.925-8.113,17.306-15.318,13.387-17.88,10.394-30.675,9.6-33.217a9,9,0,0,0-8.672-7.14H460.83A8.888,8.888,0,0,0,452,753.019a8.74,8.74,0,0,0,2.307,5.611l0.022,0.026,0.034,0.043,0.047,0.051a8.7,8.7,0,0,0,1.631,1.413,2.2,2.2,0,0,1,.444.382l0.012,0.014a11.594,11.594,0,0,1,2.839,6.447c0.4,3.88-1.106,8.128-4.474,12.626-5,6.686-10.031,8.093-13.369,8.1a12.977,12.977,0,0,1-5.007-1.027,2.322,2.322,0,0,1-.532-0.312,8.751,8.751,0,0,0-5.414-1.926H430.5a8.962,8.962,0,0,0-6.425,2.768,8.857,8.857,0,0,0,6.448,14.925,1.457,1.457,0,0,1-1.435-1.268l1.061-1.6,0.622,2.857C430.843,802.133,430.926,802.123,430.983,802.117Z" transform="translate(-398.25 -720.375)"/>
</svg>
