<svg xmlns="http://www.w3.org/2000/svg" xmlns:xlink="http://www.w3.org/1999/xlink" preserveAspectRatio="xMidYMid" width="35" height="35" viewBox="0 0 35 31.031">
  <defs>
    <style>
      .cls-1 {
        fill: #04be02;
        fill-rule: evenodd;
      }
    </style>
  </defs>
  <path d="M30.628,17.123 C28.213,17.123 26.253,15.208 26.253,12.843 C26.253,15.208 24.293,17.123 21.877,17.123 C19.463,17.123 17.502,15.208 17.502,12.843 C17.502,15.208 15.542,17.123 13.126,17.123 C10.711,17.123 8.751,15.208 8.751,12.843 C8.751,15.208 6.791,17.123 4.375,17.123 C1.960,17.123 -0.000,15.208 -0.000,12.843 L2.998,5.008 L31.891,5.008 L35.000,12.843 C35.003,15.208 33.044,17.123 30.628,17.123 L30.628,17.123 L30.628,17.123 L30.628,17.123 ZM31.882,4.966 L32.007,5.007 L31.893,5.007 L31.882,4.966 L31.882,4.966 L31.882,4.966 ZM30.000,2.730 L5.000,2.730 C4.175,2.730 3.500,2.120 3.500,1.364 C3.500,0.610 4.171,-0.000 5.000,-0.000 L30.000,-0.000 C30.832,-0.000 31.507,0.611 31.507,1.364 C31.507,2.121 30.832,2.730 30.000,2.730 L30.000,2.730 L30.000,2.730 L30.000,2.730 ZM5.501,19.780 L5.501,28.779 L29.505,28.779 L29.505,19.780 C29.505,19.780 29.846,19.768 30.000,19.780 L30.503,19.780 L32.008,19.780 L32.008,29.229 C32.008,30.022 30.987,31.033 30.083,31.033 L4.927,31.033 C4.017,31.033 3.002,30.022 3.002,29.229 L3.002,19.780 L4.504,19.780 L5.501,19.780 L5.501,19.780 L5.501,19.780 L5.501,19.780 Z" class="cls-1"/>
</svg>
