<svg xmlns="http://www.w3.org/2000/svg" xmlns:xlink="http://www.w3.org/1999/xlink" preserveAspectRatio="xMidYMid" width="55" height="55" viewBox="0 0 55 55">
  <defs>
    <style>
      .cls-1 {
        fill: #04be02;
        fill-rule: evenodd;
      }
    </style>
  </defs>
  <path d="M27.498,0.000 C42.687,0.000 55.000,12.318 55.000,27.501 C55.000,42.687 42.687,55.000 27.498,55.000 C12.313,55.000 -0.000,42.687 -0.000,27.504 C-0.000,12.318 12.313,0.000 27.498,0.000 L27.498,0.000 L27.498,0.000 L27.498,0.000 ZM13.134,20.916 C12.626,10.000 7.258,24.686 2.935,26.419 C2.325,40.319 13.552,52.094 27.498,52.094 C41.078,52.094 52.088,41.085 52.088,27.504 C52.088,21.724 47.526,15.443 41.300,21.369 C38.907,23.652 35.520,25.484 35.004,21.786 C34.417,17.577 33.761,16.577 30.299,21.366 C21.182,33.990 27.457,10.756 20.323,20.209 C17.309,23.982 13.426,27.208 13.134,20.916 L13.134,20.916 L13.134,20.916 ZM41.739,38.447 C39.697,44.359 34.094,48.594 27.498,48.594 C20.902,48.594 15.296,44.359 13.255,38.447 L14.157,38.447 C16.824,42.095 22.139,44.516 27.498,44.516 C32.858,44.516 38.412,42.095 41.083,38.447 L41.739,38.447 L41.739,38.447 L41.739,38.447 ZM16.633,31.657 C16.633,31.152 16.840,30.643 17.199,30.287 C17.559,29.927 18.063,29.720 18.572,29.720 C19.076,29.720 19.580,29.927 19.939,30.287 C20.299,30.643 20.510,31.152 20.510,31.657 " class="cls-1"/>
</svg>
