<svg xmlns="http://www.w3.org/2000/svg" xmlns:xlink="http://www.w3.org/1999/xlink" preserveAspectRatio="xMidYMid" width="98" height="123" viewBox="0 0 98 123">
  <defs>
    <style>
      .cls-1 {
        fill: #04be02;
        fill-rule: evenodd;
      }
    </style>
  </defs>
  <path d="M3.679,122.171 C-0.000,120.118 0.104,121.844 0.077,62.483 C0.054,12.212 0.161,6.898 1.237,4.649 C3.440,0.040 3.738,0.000 35.415,0.000 L63.820,0.000 L80.910,17.989 L98.000,35.979 L98.000,77.076 L98.000,118.173 L95.929,120.485 L93.859,122.796 L49.617,122.957 C13.778,123.086 5.053,122.937 3.679,122.171 L3.679,122.171 ZM90.732,79.446 L90.915,43.173 L76.792,43.173 C64.355,43.173 62.500,43.025 61.250,41.935 C58.731,39.734 58.253,36.473 58.253,21.472 L58.253,7.059 L32.879,7.246 L7.505,7.432 L7.321,60.868 C7.220,90.257 7.291,114.704 7.478,115.193 C7.748,115.898 16.469,116.046 49.183,115.901 L90.547,115.718 L90.732,79.446 L90.732,79.446 ZM18.506,90.593 L18.506,87.054 L49.381,87.054 L80.256,87.054 L80.256,90.593 L80.256,94.132 L49.381,94.132 L18.506,94.132 L18.506,90.593 L18.506,90.593 ZM18.506,76.445 L18.506,72.899 L49.420,72.899 L80.334,72.899 L80.117,76.261 L79.901,79.623 L49.204,79.807 L18.506,79.991 L18.506,76.445 L18.506,76.445 ZM18.506,58.036 L18.506,54.497 L32.701,54.497 L46.897,54.497 L46.897,58.036 L46.897,61.575 L32.701,61.575 L18.506,61.575 L18.506,58.036 L18.506,58.036 ZM18.506,43.173 L18.506,39.634 L32.701,39.634 L46.897,39.634 L46.897,43.173 L46.897,46.712 L32.701,46.712 L18.506,46.712 L18.506,43.173 L18.506,43.173 ZM76.602,24.682 L65.706,13.269 L65.501,23.090 C65.204,37.402 64.070,36.095 76.793,36.095 L87.498,36.095 L76.602,24.682 L76.602,24.682 Z" class="cls-1"/>
</svg>
