<svg xmlns="http://www.w3.org/2000/svg" xmlns:xlink="http://www.w3.org/1999/xlink" preserveAspectRatio="xMidYMid" width="278.031" height="278" viewBox="0 0 278.031 278">
  <defs>
    <style>
      .cls-1 {
        fill: #04be02;
        fill-rule: evenodd;
      }
    </style>
  </defs>
  <path d="M222.258,168.760 L204.724,168.760 C203.490,168.760 202.694,168.549 202.318,168.119 C201.942,167.689 201.758,166.777 201.758,165.374 L201.758,160.076 C201.758,158.638 201.487,157.638 200.936,157.067 C200.385,156.498 199.431,156.225 198.057,156.225 L178.065,156.225 C175.676,156.225 173.988,155.717 173.016,154.708 C172.045,153.699 171.555,151.963 171.555,149.490 C171.555,146.200 171.949,143.630 172.737,141.780 C173.691,139.482 176.446,135.614 180.987,130.167 L194.006,114.493 C200.533,106.643 205.354,101.644 208.460,99.486 C209.860,98.530 211.557,97.740 213.561,97.118 C215.565,96.495 217.428,96.196 219.178,96.196 C220.884,96.196 222.118,96.626 222.870,97.477 C223.623,98.328 223.999,99.740 223.999,101.696 L223.999,137.210 C223.999,138.271 224.148,138.999 224.436,139.394 C224.725,139.789 225.268,139.982 226.055,139.982 L228.207,139.982 C229.817,139.947 230.648,140.920 230.718,142.911 L230.718,153.340 C230.718,155.156 229.800,156.182 227.954,156.427 C226.755,156.568 226.002,156.787 225.696,157.094 C225.390,157.401 225.233,158.138 225.233,159.305 L225.233,165.365 C225.373,167.523 224.375,168.654 222.258,168.760 ZM202.467,125.852 C202.467,122.764 201.610,121.229 199.903,121.229 C198.608,121.229 197.392,121.931 196.264,123.334 L188.372,133.044 C186.079,135.886 184.933,137.929 184.933,139.157 C184.933,140.052 185.414,140.622 186.368,140.876 C187.322,141.131 189.702,141.315 193.490,141.420 L197.541,141.473 C199.282,141.473 200.463,141.280 201.076,140.885 C201.688,140.490 202.047,139.710 202.152,138.543 C202.371,136.657 202.467,133.272 202.467,128.369 L202.467,125.852 ZM97.169,168.760 L79.635,168.760 C78.401,168.760 77.605,168.549 77.229,168.119 C76.853,167.689 76.660,166.777 76.660,165.374 L76.660,160.076 C76.660,158.638 76.389,157.638 75.838,157.067 C75.287,156.498 74.342,156.225 72.977,156.225 L52.976,156.225 C50.587,156.225 48.899,155.717 47.927,154.708 C46.956,153.699 46.466,151.954 46.466,149.490 C46.466,146.200 46.860,143.630 47.647,141.780 C48.601,139.482 51.357,135.614 55.898,130.167 L68.917,114.493 C75.444,106.643 80.265,101.644 83.371,99.486 C84.771,98.530 86.468,97.740 88.472,97.118 C90.475,96.495 92.348,96.196 94.098,96.196 C95.804,96.196 97.037,96.626 97.790,97.477 C98.542,98.328 98.910,99.740 98.910,101.696 L98.910,137.210 C98.910,138.271 99.058,138.999 99.347,139.394 C99.636,139.789 100.178,139.982 100.966,139.982 L103.118,139.982 C104.728,139.947 105.559,140.929 105.629,142.911 L105.629,153.340 C105.629,155.156 104.711,156.182 102.864,156.427 C101.666,156.568 100.913,156.787 100.607,157.094 C100.301,157.401 100.144,158.138 100.144,159.305 L100.144,165.365 C100.283,167.523 99.286,168.654 97.169,168.760 ZM77.386,125.852 C77.386,122.764 76.529,121.229 74.823,121.229 C73.528,121.229 72.312,121.931 71.183,123.334 L63.283,133.044 C60.990,135.886 59.853,137.929 59.853,139.157 C59.853,140.052 60.334,140.622 61.288,140.876 C62.241,141.131 64.621,141.315 68.410,141.420 L72.461,141.473 C74.202,141.473 75.383,141.280 75.995,140.885 C76.608,140.490 76.967,139.710 77.072,138.543 C77.282,136.657 77.386,133.272 77.386,128.369 L77.386,125.852 ZM119.576,106.994 C124.668,102.161 131.037,99.740 138.693,99.740 C143.374,99.740 147.889,100.889 152.228,103.187 C158.108,106.274 162.500,110.862 165.405,116.958 C167.557,121.413 168.633,126.159 168.633,131.193 C168.633,140.376 165.133,147.893 158.125,153.752 C152.762,158.208 146.646,160.436 139.769,160.436 C132.184,160.436 125.726,157.954 120.390,152.980 C114.072,147.130 110.914,139.298 110.914,129.500 C110.914,119.940 113.801,112.441 119.576,106.994 ZM136.803,142.297 C137.862,144.490 139.279,145.587 141.055,145.587 C144.161,145.587 145.719,142.832 145.719,137.315 C145.719,134.228 145.386,130.930 144.721,127.422 C144.056,123.913 143.208,121.054 142.184,118.861 C141.055,116.432 139.498,115.160 137.520,115.054 C134.345,115.054 132.752,117.764 132.752,123.176 C132.752,130.272 134.100,136.640 136.803,142.297 ZM231.508,228.225 C211.606,244.621 185.991,255.699 159.345,259.366 L159.197,259.366 C157.428,259.550 151.900,260.724 149.910,263.438 C148.252,265.712 147.662,271.544 147.773,274.772 L147.882,277.634 L137.121,278.000 L137.085,275.139 C136.974,272.424 137.047,263.034 141.213,257.385 C146.114,250.747 156.028,249.243 157.981,249.023 C182.527,245.648 206.151,235.451 224.542,220.265 C253.438,196.423 268.954,161.504 267.110,124.566 C265.231,87.593 246.250,54.177 215.033,32.902 C193.435,18.193 167.675,10.417 140.585,10.417 C129.050,10.417 117.478,11.848 106.163,14.709 C68.017,24.282 37.206,48.601 21.616,81.467 C5.657,114.956 7.464,153.287 26.517,186.555 C45.610,219.862 78.705,242.493 117.440,248.693 L120.315,249.169 L118.435,259.439 L115.707,259.000 C73.693,252.250 37.759,227.711 17.120,191.618 C-3.667,155.414 -5.619,113.672 11.776,77.139 C28.729,41.412 62.157,15.003 103.472,4.622 C115.671,1.577 128.129,-0.000 140.585,-0.000 C169.885,-0.000 197.785,8.436 221.189,24.393 C255.170,47.502 275.809,83.815 277.834,124.053 C279.862,164.254 262.983,202.219 231.508,228.225 Z" class="cls-1"/>
</svg>
