<svg xmlns="http://www.w3.org/2000/svg" xmlns:xlink="http://www.w3.org/1999/xlink" preserveAspectRatio="xMidYMid" width="46" height="46" viewBox="0 0 46 46">
  <defs>
    <style>
      .cls-1 {
        fill: #333;
        fill-rule: evenodd;
      }
    </style>
  </defs>
  <path d="M35.385,46.000 L35.385,42.462 L42.461,42.462 L42.461,38.923 L46.000,38.923 L46.000,46.000 L35.385,46.000 ZM42.461,31.846 L46.000,31.846 L46.000,35.385 L42.461,35.385 L42.461,31.846 ZM35.385,24.769 L46.000,24.769 L46.000,28.308 L35.385,28.308 L35.385,24.769 ZM24.769,0.000 L46.000,0.000 L46.000,21.231 L24.769,21.231 L24.769,0.000 ZM28.308,17.692 L42.461,17.692 L42.461,3.538 L28.308,3.538 L28.308,17.692 ZM31.846,7.077 L38.923,7.077 L38.923,14.154 L31.846,14.154 L31.846,7.077 ZM0.000,24.769 L21.231,24.769 L21.231,46.000 L0.000,46.000 L0.000,24.769 ZM3.539,42.462 L17.692,42.462 L17.692,42.462 L17.692,28.308 L3.539,28.308 L3.539,42.462 ZM7.077,31.846 L14.154,31.846 L14.154,38.923 L7.077,38.923 L7.077,31.846 ZM0.000,0.000 L21.231,0.000 L21.231,21.231 L0.000,21.231 L0.000,0.000 ZM3.539,17.692 L17.692,17.692 L17.692,3.538 L3.539,3.538 L3.539,17.692 ZM7.077,7.077 L14.154,7.077 L14.154,14.154 L7.077,14.154 L7.077,7.077 ZM28.308,38.923 L24.769,38.923 L24.769,24.769 L28.308,24.769 L28.308,38.923 ZM31.846,31.846 L35.385,31.846 L35.385,35.385 L38.923,35.385 L38.923,38.923 L31.846,38.923 L31.846,31.846 ZM31.846,46.000 L24.769,46.000 L24.769,42.462 L31.846,42.462 L31.846,46.000 Z" class="cls-1"/>
</svg>
