<svg xmlns="http://www.w3.org/2000/svg" xmlns:xlink="http://www.w3.org/1999/xlink" preserveAspectRatio="xMidYMid" width="94.5" height="95.125" viewBox="0 0 94.5 95.125">
  <defs>
    <style>
      .cls-1 {
        fill: #04be02;
      }

      .cls-2 {
        fill: #fff;
        fill-rule: evenodd;
      }
    </style>
  </defs>
  <g>
    <circle cx="47.25" cy="47.563" r="47.25" class="cls-1"/>
    <path d="M46.998,20.187 C62.187,20.187 74.500,32.505 74.500,47.688 C74.500,62.874 62.187,75.187 46.998,75.187 C31.813,75.187 19.500,62.874 19.500,47.691 C19.500,32.505 31.813,20.187 46.998,20.187 L46.998,20.187 L46.998,20.187 L46.998,20.187 ZM32.634,41.103 C32.126,30.187 26.758,44.873 22.435,46.606 C21.825,60.507 33.052,72.281 46.998,72.281 C60.578,72.281 71.588,61.272 71.588,47.691 C71.588,41.911 67.026,35.630 60.800,41.556 C58.407,43.839 55.020,45.671 54.504,41.973 C53.917,37.764 53.261,36.764 49.799,41.553 C40.682,54.178 46.957,30.943 39.823,40.396 C36.809,44.169 32.926,47.396 32.634,41.103 L32.634,41.103 L32.634,41.103 ZM61.239,58.634 C59.197,64.546 53.594,68.781 46.998,68.781 C40.402,68.781 34.796,64.546 32.755,58.634 L33.657,58.634 C36.324,62.282 41.639,64.703 46.998,64.703 C52.358,64.703 57.912,62.282 60.583,58.634 L61.239,58.634 L61.239,58.634 L61.239,58.634 ZM36.133,51.844 C36.133,51.339 36.340,50.830 36.699,50.474 C37.059,50.114 37.563,49.907 38.072,49.907 C38.576,49.907 39.080,50.114 39.439,50.474 C39.799,50.830 40.010,51.339 40.010,51.844 " class="cls-2"/>
  </g>
</svg>
